<svg xmlns="http://www.w3.org/2000/svg" width="900" height="200" viewBox="0 0 900 200">
  <defs>
    <linearGradient id="bg" x1="0%" y1="0%" x2="100%" y2="100%"><stop offset="0%" style="stop-color:#f0f4f8"/><stop offset="100%" style="stop-color:#e8edf2"/></linearGradient>
    <linearGradient id="accent" x1="0%" y1="0%" x2="100%" y2="0%"><stop offset="0%" style="stop-color:#059669"/><stop offset="50%" style="stop-color:#0891b2"/><stop offset="100%" style="stop-color:#2563eb"/></linearGradient>
    <linearGradient id="card" x1="0%" y1="0%" x2="0%" y2="100%"><stop offset="0%" style="stop-color:#ffffff"/><stop offset="100%" style="stop-color:#f8fafc"/></linearGradient>
    <filter id="s" x="-5%" y="-5%" width="115%" height="130%"><feDropShadow dx="3" dy="6" stdDeviation="6" flood-color="#059669" flood-opacity="0.1"/></filter>
    <radialGradient id="o1" cx="50%" cy="50%" r="50%"><stop offset="0%" style="stop-color:#059669;stop-opacity:0.06"/><stop offset="100%" style="stop-color:#059669;stop-opacity:0"/></radialGradient>
  </defs>
  <rect width="900" height="200" fill="url(#bg)" rx="16"/>
  <circle cx="120" cy="50" r="85" fill="url(#o1)"/><circle cx="780" cy="150" r="75" fill="url(#o1)"/>
  <rect x="150" y="25" width="600" height="110" rx="14" fill="url(#card)" stroke="#e2e8f0" stroke-width="1" filter="url(#s)"/>
  <rect x="150" y="25" width="600" height="4" rx="2" fill="url(#accent)"/>
  <text x="450" y="68" font-family="'Segoe UI',Arial,sans-serif" font-size="28" font-weight="700" fill="#1e293b" text-anchor="middle">OPENSOURCE CHALLENGES</text>
  <text x="450" y="96" font-family="'Segoe UI',Arial,sans-serif" font-size="13" fill="#64748b" text-anchor="middle">Weekly Coding Challenges by Jaidevstudio</text>
  <text x="450" y="120" font-family="'Segoe UI',Arial,sans-serif" font-size="11" fill="#059669" text-anchor="middle" letter-spacing="3">SOLVE LEARN GROW TOGETHER</text>
  <path d="M0 16 Q0 0 16 0 L55 0" fill="none" stroke="url(#accent)" stroke-width="2" opacity="0.3"/>
  <path d="M0 16 Q0 0 16 0 L0 55" fill="none" stroke="url(#accent)" stroke-width="2" opacity="0.3"/>
  <path d="M900 16 Q900 0 884 0 L845 0" fill="none" stroke="url(#accent)" stroke-width="2" opacity="0.3"/>
  <path d="M900 16 Q900 0 884 0 L900 55" fill="none" stroke="url(#accent)" stroke-width="2" opacity="0.3"/>
</svg>
